<svg xmlns="http://www.w3.org/2000/svg" xmlns:xlink="http://www.w3.org/1999/xlink" width="255" height="80" viewBox="0 0 255 80">
  <defs>
    <filter id="background" x="0" y="0" width="255" height="80" filterUnits="userSpaceOnUse">
      <feOffset dy="4" input="SourceAlpha"/>
      <feGaussianBlur stdDeviation="2" result="blur"/>
      <feFlood flood-opacity="0.039"/>
      <feComposite operator="in" in2="blur"/>
      <feComposite in="SourceGraphic"/>
    </filter>
  </defs>
  <g id="btnChangedate" transform="translate(6 2)">
    <g transform="matrix(1, 0, 0, 1, -6, -2)" filter="url(#background)">
      <path id="background-2" data-name="background" d="M14,0H229a14,14,0,0,1,14,14V54a14,14,0,0,1-14,14H14A14,14,0,0,1,0,54V14A14,14,0,0,1,14,0Z" transform="translate(6 2)" fill="#2e4dd4"/>
    </g>
    <g id="invoice_1" data-name="invoice 1" transform="translate(31 20)">
      <path id="invoice_1_Background_Mask_" data-name="invoice 1 (Background/Mask)" d="M0,0H28V28H0Z" fill="none"/>
      <path id="Vector" d="M8.164,25.669h0A1.165,1.165,0,0,1,7,24.5V4.667A2.02,2.02,0,0,0,7,4.2,4.668,4.668,0,0,0,3.909.292,1.171,1.171,0,0,1,4.667,0H21a4.637,4.637,0,0,1,3.3,1.367,4.7,4.7,0,0,1,1.367,3.3V24.5a1.171,1.171,0,0,1-.677,1.062,1.254,1.254,0,0,1-.491.105,1.164,1.164,0,0,1-.758-.281L20.417,22.54l-3.325,2.847a1.164,1.164,0,0,1-1.516,0L12.25,22.54,8.925,25.386a1.17,1.17,0,0,1-.762.282ZM12.833,14a1.158,1.158,0,0,0-.824.341,1.175,1.175,0,0,0-.342.825,1.168,1.168,0,0,0,1.166,1.166h7a1.166,1.166,0,1,0,0-2.333Zm0-4.667a1.159,1.159,0,0,0-.824.342,1.166,1.166,0,0,0,0,1.65,1.159,1.159,0,0,0,.824.342h7A1.166,1.166,0,0,0,21,10.5a1.159,1.159,0,0,0-.341-.825,1.175,1.175,0,0,0-.825-.342Zm0-4.666a1.159,1.159,0,0,0-.824.342,1.166,1.166,0,0,0,0,1.65A1.159,1.159,0,0,0,12.833,7h7a1.175,1.175,0,0,0,.825-.342A1.159,1.159,0,0,0,21,5.833a1.166,1.166,0,0,0-1.166-1.166ZM4.667,14h-3.5a1.159,1.159,0,0,1-.824-.342A1.175,1.175,0,0,1,0,12.833V4.2A2.332,2.332,0,0,1,.849,2.618a2.356,2.356,0,0,1,1.486-.53c.077,0,.155,0,.232.011a2.345,2.345,0,0,1,2.1,2.567V14Z" transform="translate(1.167 1.167)" fill="#fff"/>
    </g>
    <text id="_New_Invoices" data-name="+ New Invoices" transform="translate(76 40)" fill="#fff" font-size="18" font-family="Poppins-Bold, Poppins" font-weight="700"><tspan x="0" y="0">+ New Invoices</tspan></text>
  </g>
</svg>
